<?xml version="1.0" encoding="UTF-8" standalone="no"?>
<!DOCTYPE svg PUBLIC "-//W3C//DTD SVG 1.1//EN" "http://www.w3.org/Graphics/SVG/1.1/DTD/svg11.dtd">
<svg width="100%" height="100%" viewBox="0 0 1024 1024" version="1.1" xmlns="http://www.w3.org/2000/svg" xmlns:xlink="http://www.w3.org/1999/xlink" xml:space="preserve" xmlns:serif="http://www.serif.com/" style="fill-rule:evenodd;clip-rule:evenodd;stroke-linejoin:round;stroke-miterlimit:1.41421;">
    <path d="M819.2,0C932.232,0 1024,91.768 1024,204.8L1024,819.2C1024,932.232 932.232,1024 819.2,1024L204.8,1024C91.768,1024 0,932.232 0,819.2L0,204.8C0,91.768 91.768,0 204.8,0L819.2,0ZM75.285,673.28L75.285,627.014C77.729,630.761 80.227,633.612 82.779,635.567C87.449,639.096 93.314,640.861 100.373,640.861C111.451,640.861 120.506,636.761 127.538,628.562C134.571,620.362 138.087,608.442 138.087,592.803C138.087,577.978 134.489,566.738 127.294,559.081C120.099,551.424 111.315,547.596 100.943,547.596C93.83,547.596 87.693,549.578 82.535,553.542C79.711,555.768 77.05,558.809 74.552,562.665L74.552,549.551L52.315,549.551L52.315,673.28L75.285,673.28ZM666.727,594.106C666.727,607.139 662.981,618.285 655.487,627.543C647.993,636.802 636.616,641.431 621.357,641.431C606.098,641.431 594.722,636.802 587.228,627.543C579.734,618.285 575.987,607.139 575.987,594.106C575.987,581.291 579.734,570.186 587.228,560.791C594.722,551.397 606.098,546.7 621.357,546.7C636.616,546.7 647.993,551.397 655.487,560.791C662.981,570.186 666.727,581.291 666.727,594.106ZM370.803,581.399C369.499,568.747 365.304,559.922 358.218,554.927C351.131,549.931 342.022,547.433 330.89,547.433C317.803,547.433 307.54,551.668 300.1,560.14C292.661,568.611 288.941,580.476 288.941,595.735C288.941,609.257 292.308,620.253 299.041,628.725C305.775,637.196 316.282,641.431 330.564,641.431C344.846,641.431 355.625,636.354 362.902,626.199C367.463,619.9 370.015,613.221 370.558,606.162L346.855,606.162C346.366,610.832 344.982,614.633 342.701,617.565C340.42,620.498 336.565,621.964 331.134,621.964C323.478,621.964 318.264,618.271 315.495,610.886C313.975,606.922 313.214,601.682 313.214,595.165C313.214,588.323 313.975,582.838 315.495,578.711C318.373,570.946 323.722,567.063 331.542,567.063C337.026,567.063 341.072,568.855 343.678,572.439C345.47,575.1 346.584,578.087 347.018,581.399L370.803,581.399ZM463.905,600.378C464.014,592.721 463.77,586.857 463.172,582.784C462.141,575.833 459.887,569.724 456.412,564.457C452.556,558.483 447.669,554.112 441.75,551.343C435.831,548.573 429.179,547.188 421.793,547.188C409.358,547.188 399.244,551.288 391.451,559.488C383.659,567.688 379.763,579.472 379.763,594.839C379.763,611.239 384.08,623.077 392.714,630.354C401.348,637.63 411.313,641.269 422.608,641.269C436.292,641.269 446.936,636.951 454.538,628.317C459.425,622.887 462.168,617.538 462.765,612.271L439.062,612.271C437.813,614.877 436.374,616.914 434.745,618.38C431.758,621.095 427.875,622.453 423.097,622.453C418.589,622.453 414.734,621.339 411.53,619.113C406.263,615.529 403.466,609.284 403.14,600.378L463.905,600.378ZM908.729,600.378C908.838,592.721 908.594,586.857 907.996,582.784C906.964,575.833 904.711,569.724 901.235,564.457C897.38,558.483 892.493,554.112 886.574,551.343C880.655,548.573 874.002,547.188 866.617,547.188C854.182,547.188 844.068,551.288 836.275,559.488C828.483,567.688 824.587,579.472 824.587,594.839C824.587,611.239 828.904,623.077 837.538,630.354C846.172,637.63 856.137,641.269 867.432,641.269C881.116,641.269 891.76,636.951 899.362,628.317C904.249,622.887 906.992,617.538 907.589,612.271L883.886,612.271C882.637,614.877 881.198,616.914 879.569,618.38C876.582,621.095 872.699,622.453 867.92,622.453C863.413,622.453 859.558,621.339 856.354,619.113C851.087,615.529 848.29,609.284 847.964,600.378L908.729,600.378ZM810.495,638.336L810.495,518.435L786.955,518.435L786.955,560.791C784.348,556.61 780.954,553.338 776.773,550.976C772.591,548.614 767.813,547.433 762.437,547.433C750.762,547.433 741.435,551.777 734.457,560.466C727.479,569.154 723.99,581.074 723.99,596.224C723.99,609.365 727.533,620.131 734.62,628.521C741.706,636.911 750.436,641.106 760.808,641.106C767.107,641.106 772.374,639.911 776.61,637.522C780.845,635.132 784.62,631.304 787.932,626.037L787.932,638.336L810.495,638.336ZM278.352,638.336L278.352,634.915C276.831,634.209 275.691,633.313 274.931,632.227C274.17,631.141 273.709,629.077 273.546,626.037C273.437,622.018 273.383,618.597 273.383,615.773L273.383,575.046C273.383,564.348 269.609,557.072 262.061,553.216C254.513,549.361 245.878,547.433 236.158,547.433C221.225,547.433 210.69,551.343 204.554,559.162C200.698,564.158 198.526,570.539 198.037,578.304L220.437,578.304C220.98,574.883 222.067,572.168 223.696,570.159C225.976,567.443 229.859,566.086 235.344,566.086C240.231,566.086 243.937,566.778 246.462,568.163C248.987,569.548 250.25,572.059 250.25,575.698C250.25,578.684 248.594,580.883 245.281,582.295C243.435,583.11 240.367,583.789 236.077,584.332L228.176,585.309C219.216,586.45 212.428,588.35 207.812,591.011C199.395,595.898 195.186,603.799 195.186,614.714C195.186,623.131 197.807,629.634 203.047,634.223C208.287,638.811 214.926,641.106 222.963,641.106C229.262,641.106 234.909,639.667 239.905,636.789C244.086,634.345 247.779,631.385 250.983,627.91C251.146,629.919 251.363,631.711 251.635,633.286C251.906,634.861 252.395,636.544 253.101,638.336L278.352,638.336ZM947.502,638.336L947.502,595.898C947.502,588.785 948.398,583.517 950.19,580.096C953.394,574.014 959.666,570.973 969.006,570.973C969.712,570.973 970.635,571 971.775,571.055C972.916,571.109 974.219,571.218 975.685,571.38L975.685,547.596C974.653,547.541 973.988,547.501 973.689,547.474C973.391,547.446 973.024,547.433 972.59,547.433C965.639,547.433 959.991,549.252 955.647,552.89C952.986,555.062 949.864,559.108 946.28,565.027L946.28,549.551L924.124,549.551L924.124,638.336L947.502,638.336ZM559.778,638.336L559.778,586.205C559.778,578.277 559.506,572.562 558.963,569.059C558.42,565.556 556.927,562.149 554.483,558.836C551.605,554.927 547.926,552.021 543.446,550.121C538.966,548.22 533.984,547.27 528.499,547.27C523.612,547.27 518.955,548.288 514.529,550.324C510.104,552.361 506.208,555.958 502.841,561.117L502.841,518.679L479.708,518.679L479.708,638.336L502.841,638.336L502.841,590.278C502.841,582.675 504.429,576.824 507.606,572.724C510.783,568.625 515.439,566.575 521.575,566.575C527.494,566.575 531.513,568.638 533.631,572.765C535.26,575.698 536.074,579.553 536.074,584.332L536.074,638.336L559.778,638.336ZM178.57,638.336L178.57,518.272L155.355,518.272L155.355,638.336L178.57,638.336ZM707.048,638.336L707.048,518.272L683.833,518.272L683.833,638.336L707.048,638.336ZM250.168,595.165C248.702,596.088 247.222,596.835 245.729,597.405C244.236,597.975 242.186,598.505 239.579,598.994L234.366,599.971C229.479,600.84 225.976,601.899 223.859,603.148C220.275,605.266 218.483,608.551 218.483,613.004C218.483,616.968 219.582,619.832 221.781,621.597C223.981,623.362 226.655,624.245 229.805,624.245C234.801,624.245 239.403,622.778 243.611,619.846C247.82,616.914 250.005,611.565 250.168,603.799L250.168,595.165ZM621.276,621.964C628.064,621.964 633.277,619.547 636.915,614.714C640.553,609.881 642.373,603.012 642.373,594.106C642.373,585.201 640.553,578.345 636.915,573.539C633.277,568.733 628.064,566.33 621.276,566.33C614.488,566.33 609.261,568.733 605.596,573.539C601.93,578.345 600.098,585.201 600.098,594.106C600.098,603.012 601.93,609.881 605.596,614.714C609.261,619.547 614.488,621.964 621.276,621.964ZM767.487,621.557C774.058,621.557 779.053,619.113 782.475,614.226C785.896,609.338 787.606,603.012 787.606,595.247C787.606,584.386 784.864,576.621 779.379,571.951C776.012,569.127 772.103,567.715 767.65,567.715C760.862,567.715 755.88,570.281 752.703,575.412C749.526,580.544 747.938,586.911 747.938,594.514C747.938,602.713 749.553,609.27 752.784,614.185C756.015,619.099 760.916,621.557 767.487,621.557ZM114.139,593.943C114.139,587.101 112.578,581.046 109.455,575.779C106.333,570.512 101.269,567.878 94.264,567.878C85.847,567.878 80.064,571.869 76.914,579.852C75.285,584.087 74.471,589.463 74.471,595.98C74.471,606.297 77.213,613.547 82.698,617.728C85.956,620.172 89.811,621.394 94.264,621.394C100.726,621.394 105.654,618.896 109.048,613.9C112.442,608.904 114.139,602.252 114.139,593.943ZM866.617,566.33C861.241,566.33 857.073,568.014 854.114,571.38C851.154,574.747 849.295,579.309 848.534,585.065L884.619,585.065C884.239,578.929 882.379,574.272 879.039,571.095C875.699,567.919 871.559,566.33 866.617,566.33ZM421.793,566.33C416.417,566.33 412.25,568.014 409.29,571.38C406.331,574.747 404.471,579.309 403.71,585.065L439.795,585.065C439.415,578.929 437.555,574.272 434.215,571.095C430.876,567.919 426.735,566.33 421.793,566.33ZM409.046,506.461L409.046,460.195C411.489,463.942 413.987,466.793 416.54,468.748C421.21,472.277 427.074,474.042 434.134,474.042C445.212,474.042 454.267,469.942 461.299,461.742C468.331,453.543 471.847,441.623 471.847,425.984C471.847,411.159 468.25,399.918 461.054,392.262C453.859,384.605 445.076,380.777 434.704,380.777C427.59,380.777 421.454,382.759 416.295,386.723C413.471,388.949 410.811,391.99 408.313,395.846L408.313,382.731L386.075,382.731L386.075,506.461L409.046,506.461ZM307.146,506.461L307.146,460.195C309.59,463.942 312.087,466.793 314.64,468.748C319.31,472.277 325.175,474.042 332.234,474.042C343.312,474.042 352.367,469.942 359.399,461.742C366.431,453.543 369.947,441.623 369.947,425.984C369.947,411.159 366.35,399.918 359.155,392.262C351.96,384.605 343.176,380.777 332.804,380.777C325.69,380.777 319.554,382.759 314.395,386.723C311.572,388.949 308.911,391.99 306.413,395.846L306.413,382.731L284.176,382.731L284.176,506.461L307.146,506.461ZM658.134,414.58C656.831,401.928 652.636,393.103 645.549,388.107C638.463,383.112 629.353,380.614 618.221,380.614C605.134,380.614 594.871,384.849 587.431,393.321C579.992,401.792 576.272,413.657 576.272,428.916C576.272,442.438 579.639,453.434 586.372,461.905C593.106,470.377 603.614,474.612 617.895,474.612C632.177,474.612 642.956,469.535 650.233,459.38C654.794,453.081 657.347,446.402 657.89,439.342L634.186,439.342C633.698,444.013 632.313,447.814 630.032,450.746C627.751,453.678 623.896,455.145 618.466,455.145C610.809,455.145 605.596,451.452 602.826,444.067C601.306,440.103 600.546,434.862 600.546,428.346C600.546,421.504 601.306,416.019 602.826,411.892C605.704,404.127 611.053,400.244 618.873,400.244C624.357,400.244 628.403,402.036 631.01,405.62C632.802,408.281 633.915,411.268 634.349,414.58L658.134,414.58ZM759.382,427.287C759.382,440.32 755.635,451.466 748.141,460.724C740.648,469.983 729.271,474.612 714.012,474.612C698.753,474.612 687.376,469.983 679.882,460.724C672.389,451.466 668.642,440.32 668.642,427.287C668.642,414.472 672.389,403.367 679.882,393.972C687.376,384.578 698.753,379.881 714.012,379.881C729.271,379.881 740.648,384.578 748.141,393.972C755.635,403.367 759.382,414.472 759.382,427.287ZM271.469,471.517L228.949,351.453L200.603,351.453L157.758,471.517L183.986,471.517L192.295,446.836L236.525,446.836L244.263,471.517L271.469,471.517ZM558.841,471.517L558.841,382.731L535.3,382.731L535.3,471.517L558.841,471.517ZM856.476,471.517L856.476,411.729C856.476,400.597 853.557,392.628 847.72,387.822C841.882,383.017 834.375,380.614 825.198,380.614C817.867,380.614 811.812,382.406 807.033,385.99C804.372,387.999 801.549,391.284 798.562,395.846L798.562,382.894L776.162,382.894L776.162,471.517L799.295,471.517L799.295,423.459C799.295,417.974 800.055,413.467 801.576,409.937C804.508,403.258 809.911,399.918 817.785,399.918C824.193,399.918 828.537,402.199 830.818,406.761C832.067,409.259 832.691,412.843 832.691,417.513L832.691,471.517L856.476,471.517ZM713.93,455.145C720.718,455.145 725.931,452.728 729.57,447.895C733.208,443.062 735.027,436.193 735.027,427.287C735.027,418.381 733.208,411.526 729.57,406.72C725.931,401.914 720.718,399.511 713.93,399.511C707.143,399.511 701.916,401.914 698.25,406.72C694.585,411.526 692.752,418.381 692.752,427.287C692.752,436.193 694.585,443.062 698.25,447.895C701.916,452.728 707.143,455.145 713.93,455.145ZM447.9,427.124C447.9,420.282 446.338,414.227 443.216,408.96C440.093,403.692 435.03,401.059 428.025,401.059C419.608,401.059 413.824,405.05 410.675,413.033C409.046,417.268 408.231,422.644 408.231,429.161C408.231,439.478 410.973,446.728 416.458,450.909C419.716,453.353 423.572,454.574 428.025,454.574C434.487,454.574 439.415,452.077 442.809,447.081C446.203,442.085 447.9,435.433 447.9,427.124ZM346,427.124C346,420.282 344.439,414.227 341.316,408.96C338.194,403.692 333.13,401.059 326.125,401.059C317.708,401.059 311.925,405.05 308.775,413.033C307.146,417.268 306.331,422.644 306.331,429.161C306.331,439.478 309.074,446.728 314.558,450.909C317.816,453.353 321.672,454.574 326.125,454.574C332.587,454.574 337.515,452.077 340.909,447.081C344.303,442.085 346,435.433 346,427.124ZM199.056,426.147L229.52,426.147L214.532,378.903L199.056,426.147ZM558.841,372.142L558.841,350.72L535.3,350.72L535.3,372.142L558.841,372.142Z" style="fill:rgb(166,166,166);"/>
</svg>
