<svg version="1" xmlns="http://www.w3.org/2000/svg" width="1365.333" height="1365.333" viewBox="0 0 1024.000000 1024.000000"><path d="M217 73.4c-14.3 4-24.8 14.7-28.5 29.1-1.3 5.5-1.5 48.9-1.3 412.5.3 385.4.4 406.7 2.1 411 4.1 10.6 14.4 20.3 25.4 23.9l6.3 2.1h281.8c313.9 0 287.5.6 302.4-7.2 13.4-6.9 23.6-18.8 29-33.8l2.3-6.5.3-389c.2-352.9.1-389.7-1.3-396.3-4.5-20.4-19.9-37.3-40-43.9-7.2-2.3-10-2.6-26.7-3.1l-18.8-.4-.2 140.1-.3 140.2-34.2-42.6-34.2-42.6-34.2 42.6c-18.8 23.4-34.8 42.5-35.5 42.5-1.2 0-1.4-22.2-1.4-140V72l-194.2.1c-152.3.1-195.3.3-198.8 1.3zm600.7 796.3c-.7 15.3-3.5 25.5-9.7 35-7.9 12-21.6 21.8-35.5 25.5-7.7 2-529.9 1.9-536.8-.1-7-2-16-8.2-20.1-13.8-5.8-7.9-7.8-14.2-8.4-27.4l-.5-11.7 5.9-2.3 5.9-2.4 285-.5c273.7-.5 285.2-.6 290.5-2.3 7-2.4 18.3-8.3 20.6-10.8 3.3-3.7 3.7-2.3 3.1 10.8z"/></svg>