<svg version="1" xmlns="http://www.w3.org/2000/svg" width="1365.333" height="1365.333" viewBox="0 0 1024.000000 1024.000000"><path d="M217 73.4c-14.3 4-24.8 14.7-28.5 29.1-1.3 5.5-1.5 48.9-1.3 412.5.3 385.4.4 406.7 2.1 411 4.1 10.6 14.4 20.3 25.4 23.9l6.3 2.1h281.8c313.9 0 287.5.6 302.4-7.2 13.4-6.9 23.6-18.8 29-33.8l2.3-6.5.3-389c.2-352.9.1-389.7-1.3-396.3-4.5-20.4-19.9-37.3-40-43.9-7.2-2.3-10-2.6-26.7-3.1l-18.8-.4-.2 140.1-.3 140.2-34.2-42.6-34.2-42.6-34.2 42.6c-18.8 23.4-34.8 42.5-35.5 42.5-1.2 0-1.4-22.2-1.4-140V72l-194.2.1c-152.3.1-195.3.3-198.8 1.3zM816.9 864c.1 4.2-2.7 14.1-6 20.9-4.6 9.4-15.1 19.9-24.8 25-14.8 7.7 9.3 7.1-282.8 7.1-252.2 0-262.3-.1-268.1-1.8-13.1-4.1-23.5-15.3-26.6-28.6-.7-2.7-.5-2.8 1.9-2.2 3 .8 2.9.8.9-3.3-.9-1.7-1.4-3.8-1.1-4.5.3-.7 3.2-2 6.4-2.9 5.5-1.6 28.3-1.7 286.5-1.7 273.9 0 280.7 0 288-1.9 7.9-2 17.5-6.4 21.8-9.9 2.3-1.9 2.6-1.9 3.2-.4.4.9.7 2.8.7 4.2z"/><path d="M815.1 862.6c0 1.1.3 1.4.6.6.3-.7.2-1.6-.1-1.9-.3-.4-.6.2-.5 1.3z"/></svg>