<svg xmlns="http://www.w3.org/2000/svg" viewBox="0 0 24 24"><path d="M8 6h13M8 12h13M8 18h13" fill="none" stroke="currentColor" stroke-linecap="round" stroke-linejoin="round" stroke-width="2"/><path fill="currentColor" d="M4.58 7.75H3.47V4.94a2.94 2.94 0 0 1-.25.26l-.46.37-.57-.68L3.6 3.77h1zm.5 5.99H2.15V13l1-1c.29-.29.47-.49.56-.6a2.09 2.09 0 0 0 .18-.27.69.69 0 0 0 0-.24.34.34 0 0 0-.1-.25.44.44 0 0 0-.29-.09.82.82 0 0 0-.39.11 3 3 0 0 0-.41.34l-.6-.69a3.17 3.17 0 0 1 .53-.4 1.7 1.7 0 0 1 .46-.18 2.47 2.47 0 0 1 .56-.06 1.54 1.54 0 0 1 .7.14 1.09 1.09 0 0 1 .48.38 1 1 0 0 1 .17.57 1.49 1.49 0 0 1-.06.43 1.7 1.7 0 0 1-.18.39 2.82 2.82 0 0 1-.33.41c-.14.14-.43.41-.88.8h1.53zm-.14 2.88a.88.88 0 0 1-.23.63 1.27 1.27 0 0 1-.66.39c.68.08 1 .39 1 .94a1 1 0 0 1-.44.87 2.05 2.05 0 0 1-1.24.32 3.91 3.91 0 0 1-.61 0 4.69 4.69 0 0 1-.6-.17v-.9a2.37 2.37 0 0 0 .54.2 2.5 2.5 0 0 0 .51.06 1.13 1.13 0 0 0 .52-.09.36.36 0 0 0 .17-.32.33.33 0 0 0-.09-.25.57.57 0 0 0-.27-.13 2.27 2.27 0 0 0-.5 0H2.8v-.81h.25c.56 0 .84-.13.84-.41a.27.27 0 0 0-.13-.24.62.62 0 0 0-.33-.08 1.54 1.54 0 0 0-.8.26l-.45-.72a2.27 2.27 0 0 1 .65-.31 3 3 0 0 1 .77-.09 1.77 1.77 0 0 1 1 .24.8.8 0 0 1 .34.61z"/></svg>
